<svg width="512" height="512" xmlns="http://www.w3.org/2000/svg" xmlns:svg="http://www.w3.org/2000/svg" xmlns:xlink="http://www.w3.org/1999/xlink">
 <g>
  <title>Layer 1</title>
  <g stroke="null" id="svg_1">
   <g stroke="null" id="svg_2">
    <g stroke="null" id="svg_3">
     <path stroke="null" id="svg_4" fill="#009900" class="active-path" d="m228.066585,135.834478c0,-6.059151 -4.913008,-10.97119 -10.97119,-10.97119c-6.059151,0 -10.97119,4.912039 -10.97119,10.97119c0,18.905054 0.429198,37.941871 1.27403,56.581461c0.266432,5.88379 5.120341,10.474173 10.951813,10.474173c0.16761,0 0.337158,-0.002907 0.504768,-0.010657c6.054306,-0.274183 10.737699,-5.403243 10.463516,-11.455612c-0.830299,-18.311153 -1.251747,-37.014687 -1.251747,-55.589365z"/>
    </g>
   </g>
   <g stroke="null" id="svg_5">
    <g stroke="null" id="svg_6">
     <path stroke="null" id="svg_7" fill="#009900" class="active-path" d="m306.141851,124.863288c-6.059151,0 -10.97119,4.912039 -10.97119,10.97119c0,5.935139 -0.043598,11.947785 -0.128856,17.86936c-0.086227,6.058182 4.754118,11.039978 10.8123,11.128143c0.053286,0 0.107542,0.000969 0.160828,0.000969c5.985519,0 10.880119,-4.808373 10.966346,-10.813268c0.086227,-6.027179 0.130794,-12.145429 0.130794,-18.186172c0.000969,-6.059151 -4.91107,-10.970221 -10.970221,-10.970221z"/>
    </g>
   </g>
   <g stroke="null" id="svg_8">
    <g stroke="null" id="svg_9">
     <path stroke="null" id="svg_10" fill="#009900" class="active-path" d="m261.618623,89.133288c-6.059151,0 -10.97119,4.912039 -10.97119,10.97119l0,18.256897c0,6.059151 4.912039,10.97119 10.97119,10.97119s10.97119,-4.912039 10.97119,-10.97119l0,-18.256897c0,-6.058182 -4.912039,-10.97119 -10.97119,-10.97119z"/>
    </g>
   </g>
   <g stroke="null" id="svg_11">
    <g stroke="null" id="svg_12">
     <path stroke="null" id="svg_13" fill="#009900" class="active-path" d="m379.283764,196.594564l-19.430167,0c0.515425,-12.309164 0.877773,-24.784 1.03085,-37.323748l20.120953,0c6.066901,0 10.97119,-4.914946 10.97119,-10.97119c0,-6.056244 -4.904289,-10.97119 -10.97119,-10.97119l-20.153894,0c-0.548366,-10.608842 -2.786395,-21.075265 -6.60461,-30.916782l18.134823,-10.47708c5.244353,-3.027638 7.043496,-9.73107 4.015859,-14.987049c-3.039264,-5.244353 -9.742696,-7.043496 -14.987049,-4.015859l-17.33262,10.006221c-6.341084,-9.446229 -14.152874,-17.608741 -23.039111,-24.246291l10.378257,-17.971088c3.027638,-5.244353 1.228494,-11.958442 -4.015859,-14.987049c-5.25501,-3.027638 -11.958442,-1.228494 -14.997706,4.015859l-10.301719,17.849983c-9.259243,-4.114681 -19.188925,-6.835195 -29.511959,-7.964867l0,-20.888278c0,-6.056244 -4.914946,-10.97119 -10.97119,-10.97119s-10.97119,4.914946 -10.97119,10.97119l0,20.889247c-10.324002,1.129672 -20.252716,3.851155 -29.511959,7.964867l-10.301719,-17.849983c-3.039264,-5.244353 -9.742696,-7.043496 -14.997706,-4.015859c-5.244353,3.027638 -7.043496,9.742696 -4.015859,14.98608l10.378257,17.971088c-8.886238,6.637551 -16.698027,14.800062 -23.039111,24.246291l-17.334558,-10.005252c-5.244353,-3.027638 -11.947785,-1.228494 -14.98608,4.015859c-3.027638,5.25501 -1.228494,11.958442 4.015859,14.987049l18.134823,10.47708c-3.818214,9.841518 -6.056244,20.30794 -6.60461,30.916782l-20.153894,0c-6.066901,0 -10.97119,4.914946 -10.97119,10.97119c0,6.056244 4.904289,10.97119 10.97119,10.97119l20.120953,0c0.154046,12.539749 0.515425,25.014585 1.03085,37.323748l-19.430167,0c-6.056244,0 -10.97119,4.914946 -10.97119,10.97119s4.914946,10.97119 10.97119,10.97119l20.516242,0c0.756667,12.682169 1.700321,25.222886 2.819336,37.477794l-18.661874,0c-6.056244,0 -10.97119,4.914946 -10.97119,10.97119s4.914946,10.97119 10.97119,10.97119l20.899904,0c1.316659,11.684259 2.819336,23.170874 4.487686,34.339708l-9.577992,0c-9.522768,0 -17.279334,7.745908 -17.279334,17.268676l0,32.441743c0,9.533425 7.756565,17.279334 17.279334,17.279334l1.283718,0l16.533324,119.069965c0.756667,5.430371 5.386773,9.468513 10.861711,9.468513l137.007144,0c5.474938,0 10.115701,-4.037173 10.861711,-9.468513l16.533324,-119.069965l1.283718,0c9.522768,0 17.279334,-7.745908 17.279334,-17.279334l0,-32.441743c0,-9.522768 -7.756565,-17.268676 -17.279334,-17.268676l-9.577992,0c1.667381,-11.168834 3.171027,-22.655449 4.486717,-34.339708l20.899904,0c6.056244,0 10.97119,-4.914946 10.97119,-10.97119s-4.914946,-10.97119 -10.97119,-10.97119l-18.661874,0c1.119015,-12.254908 2.062669,-24.794657 2.819336,-37.477794l20.516242,0c6.056244,0 10.97119,-4.914946 10.97119,-10.97119s-4.913977,-10.972159 -10.970221,-10.972159zm-185.751625,-91.060683c13.582225,-25.058182 39.517211,-40.559687 68.086484,-40.559687s54.50426,15.502474 68.086484,40.560656c0.218959,0.636531 9.347407,16.028556 9.347407,36.884862c0,21.33879 -0.527051,42.633982 -1.568559,63.336242c-0.098822,0.581306 -2.512213,40.022948 -4.322982,57.916528c-0.329407,1.042476 -3.949977,34.361023 -6.132783,48.624345l-23.280354,0c6.012646,-36.248331 10.169956,-77.36801 12.090205,-119.881856c0.065881,-1.469736 0.131763,-2.940442 0.186987,-4.421804c0.230585,-6.056244 -4.486717,-11.146551 -10.542961,-11.377136c-6.045587,-0.230585 -11.146551,4.486717 -11.377136,10.542961c-0.055224,1.415481 -0.121106,2.84162 -0.186987,4.267758c-1.95319,43.072869 -6.231605,84.619808 -12.419612,120.869108l-8.908521,0l0,-156.975019c0,-6.056244 -4.914946,-10.97119 -10.97119,-10.97119c-6.056244,0 -10.97119,4.914946 -10.97119,10.97119l0,156.975019l-8.919178,0c-3.949977,-23.104993 -7.09872,-48.140892 -9.380348,-74.603898c-0.329407,-3.851155 -0.647188,-7.723625 -0.943654,-11.629035c-0.449544,-6.033961 -5.71618,-10.575902 -11.760798,-10.115701c-6.033961,0.449544 -10.565244,5.71618 -10.115701,11.760798c0.296466,3.927694 0.614247,7.931926 0.965938,11.881903c2.205089,25.650146 5.233696,50.0282 8.996686,72.705933l-23.280354,0c-2.182806,-14.262353 -5.803376,-47.581869 -6.132783,-48.624345c-1.809801,-17.893581 -4.22416,-57.335222 -4.322982,-57.916528c-1.042476,-20.70226 -1.568559,-41.997452 -1.568559,-63.336242c-0.000969,-21.130489 9.126511,-36.248331 9.346439,-36.884862zm160.606247,228.704357l0,23.104993l-36.007089,0c-6.056244,0 -10.97119,4.914946 -10.97119,10.97119s4.914946,10.97119 10.97119,10.97119l17.225078,0l-14.789404,106.595129l-117.895726,0l-14.789404,-106.595129l79.81531,0c6.066901,0 10.97119,-4.914946 10.97119,-10.97119s-4.904289,-10.97119 -10.97119,-10.97119l-98.59829,0l0,-23.104993l185.039525,0z"/>
    </g>
   </g>
  </g>
  <use x="652.865982" y="1250.802815" transform="matrix(0.8825524785794802,0,0,0.8825524785794802,-544.4546327895076,-1071.5471264184512) " xlink:href="#svg_21" id="svg_22"/>
  <g id="svg_23"/>
 </g>
 <defs>
  <symbol height="512px" width="512px" viewBox="0 0 512 512" y="0px" x="0px" id="svg_21" xmlns:xlink="http://www.w3.org/1999/xlink" xmlns="http://www.w3.org/2000/svg">
   <g>
    <g>
     <g>
      <path fill="#009900" class="active-path" d="m505.943,6.058c-8.077,-8.077 -21.172,-8.077 -29.249,0l-470.636,470.635c-8.077,8.077 -8.077,21.172 0,29.249c4.038,4.04 9.332,6.058 14.625,6.058c5.293,0 10.586,-2.019 14.625,-6.059l470.635,-470.635c8.076,-8.076 8.076,-21.171 0,-29.248z"/>
     </g>
    </g>
    <g>
     <g>
      <path fill="#009900" class="active-path" d="m505.942,476.694l-470.636,-470.635c-8.076,-8.077 -21.172,-8.077 -29.248,0c-8.077,8.076 -8.077,21.171 0,29.248l470.636,470.636c4.038,4.039 9.332,6.058 14.625,6.058c5.293,0 10.587,-2.019 14.624,-6.057c8.075,-8.078 8.075,-21.173 -0.001,-29.25z"/>
     </g>
    </g>
   </g>
  </symbol>
 </defs>
</svg>