<?xml version="1.0"?>
<svg xmlns="http://www.w3.org/2000/svg" height="512px" viewBox="0 -1 464 464" width="512px" class=""><g><path d="m88 294.214844v21.511718c7.449219-2.582031 12.902344-6.917968 18.953125-11.765624 10.398437-8.320313 22.183594-17.753907 44.984375-17.753907 19.308594 0 30.703125 6.769531 40.0625 13.898438v-26.816407c0-1.03125.0625-2.050781.070312-3.082031h-103.390624c-.398438 7.984375-.679688 15.984375-.679688 24.007813zm0 0" data-original="#000000" class="active-path" data-old_color="#000000" fill="#009900"/><path d="m184 398.214844c0 17.648437 14.351562 32 32 32s32-14.351563 32-32c0-12.6875-7.535156-24.183594-19.207031-29.292969l-4.792969-2.097656v-80.382813c0-77.855468 18.519531-153.722656 53.960938-222.21875-45.402344 59.914063-69.960938 132.59375-69.960938 209.074219v93.527344l-4.792969 2.097656c-11.671875 5.109375-19.207031 16.605469-19.207031 29.292969zm0 0" data-original="#000000" class="active-path" data-old_color="#000000" fill="#009900"/><path d="m240 286.441406v31.160156c11.9375-1.746093 19.023438-7.296874 26.9375-13.632812 10.398438-8.320312 22.183594-17.753906 44.992188-17.753906 14.199218 0 24.109374 3.640625 32.070312 8.394531v-24.394531h-103.703125c-.183594 5.402344-.296875 10.800781-.296875 16.226562zm0 0" data-original="#000000" class="active-path" data-old_color="#000000" fill="#009900"/><path d="m368 390.214844c8.824219 0 16-7.175782 16-16 0-4.511719-1.902344-8.71875-5.359375-11.832032l-2.640625-2.382812v-137.785156c0-77.863282 18.519531-153.726563 53.960938-222.214844-45.402344 59.902344-69.960938 132.601562-69.960938 209.078125v150.921875l-2.640625 2.382812c-3.457031 3.121094-5.359375 7.320313-5.359375 11.832032 0 8.824218 7.175781 16 16 16zm0 0" data-original="#000000" class="active-path" data-old_color="#000000" fill="#009900"/><path d="m392 270.214844v48c17.183594-.007813 25.441406-6.605469 34.992188-14.246094 9.105468-7.289062 19.289062-15.425781 37.007812-17.328125v-16.417969h-72zm0 0" data-original="#000000" class="active-path" data-old_color="#000000" fill="#009900"/><path d="m64 382.214844c8.824219 0 16-7.175782 16-16 0-4.511719-1.902344-8.71875-5.359375-11.832032l-2.640625-2.382812v-57.785156c0-77.863282 18.519531-153.726563 53.960938-222.214844-45.402344 59.902344-69.960938 132.601562-69.960938 209.078125v70.921875l-2.640625 2.382812c-3.457031 3.113282-5.359375 7.320313-5.359375 11.832032 0 8.824218 7.175781 16 16 16zm0 0" data-original="#000000" class="active-path" data-old_color="#000000" fill="#009900"/><path d="m392 334.214844v18.960937c5.128906 5.832031 8 13.3125 8 21.039063 0 17.648437-14.351562 32-32 32s-32-14.351563-32-32c0-7.726563 2.871094-15.207032 8-21.039063v-39.046875c-8.398438-6.601562-16.609375-11.914062-32.070312-11.914062-17.1875 0-25.441407 6.601562-34.992188 14.25-9.097656 7.277344-19.265625 15.40625-36.9375 17.328125v22.886719c14.734375 8.511718 24 24.289062 24 41.527343 0 26.472657-21.527344 48-48 48s-48-21.527343-48-48c0-17.238281 9.265625-33.015625 24-41.527343v-36.34375c-1.695312-1.289063-3.40625-2.558594-5.0625-3.878907-9.554688-7.640625-17.816406-14.242187-35-14.242187s-25.441406 6.601562-34.984375 14.242187c-7.5625 6.046875-16.023437 12.75-28.953125 15.902344v12.816406c5.128906 5.832031 8 13.3125 8 21.039063 0 17.648437-14.351562 32-32 32s-32-14.351563-32-32c0-7.726563 2.871094-15.207032 8-21.039063v-19.328125c-4.863281-2.886718-9-6.167968-13.015625-9.375-7.914063-6.34375-15.015625-11.90625-26.984375-13.640625v95.808594c17.695312 1.910156 27.871094 10.039063 36.976562 17.328125 9.542969 7.648438 17.800782 14.246094 34.984376 14.246094 17.183593 0 25.429687-6.597656 34.984374-14.238282 10.398438-8.328124 22.183594-17.761718 44.992188-17.761718v16c-17.183594 0-25.441406 6.601562-34.992188 14.25-10.402343 8.320312-22.183593 17.75-44.984374 17.75-22.800782 0-34.585938-9.429688-44.984376-17.757813-7.914062-6.328125-15.015624-11.890625-26.976562-13.625v47.390625h464v-47.390625c-11.984375 1.734375-19.089844 7.296875-27.015625 13.640625-10.417969 8.320313-22.199219 17.75-45.023437 17.75-22.816407 0-34.609376-9.429687-45.015626-17.75-9.554687-7.648437-17.816406-14.25-35.015624-14.25-12.722657 0-20.058594 3.632813-25.554688 7.191406l-8.6875-13.4375c10.289062-6.65625 21.167969-9.761718 34.242188-9.761718 22.8125 0 34.605468 9.433594 45.015624 17.753906 9.550782 7.648438 17.816407 14.246094 35.015626 14.246094 17.207031 0 25.472656-6.597656 35.03125-14.246094 9.105468-7.289062 19.289062-15.425781 37.007812-17.328125v-95.808594c-11.984375 1.734375-19.089844 7.296875-27.015625 13.640625-10.410156 8.3125-22.191406 17.734375-44.984375 17.742188zm0 0" data-original="#000000" class="active-path" data-old_color="#000000" fill="#009900"/><path d="m40 306.296875v-25.226563c0-3.628906.160156-7.238281.265625-10.855468h-40.265625v16.417968c17.703125 1.910157 27.878906 10.046876 36.984375 17.335938 1.015625.816406 2.015625 1.550781 3.015625 2.328125zm0 0" data-original="#000000" class="active-path" data-old_color="#000000" fill="#009900"/></g> </svg>
