<?xml version="1.0" encoding="UTF-8"?>
<!DOCTYPE svg PUBLIC "-//W3C//DTD SVG 1.0//EN" "http://www.w3.org/TR/2001/REC-SVG-20010904/DTD/svg10.dtd">
<!-- Creator: CorelDRAW X7 -->
<svg xmlns="http://www.w3.org/2000/svg" xml:space="preserve" width="1344px" height="775px" version="1.0" style="shape-rendering:geometricPrecision; text-rendering:geometricPrecision; image-rendering:optimizeQuality; fill-rule:evenodd; clip-rule:evenodd"
viewBox="0 0 1344 774"
 xmlns:xlink="http://www.w3.org/1999/xlink">
 <defs>
  <style type="text/css">
   <![CDATA[
    .fil0 {fill:#028101}
    .fil2 {fill:#1D1A1B}
    .fil1 {fill:#FDFDFD}
   ]]>
  </style>
   <clipPath id="id0" style="clip-rule:nonzero">
    <path d="M707 600l0 30c0,7 -7,13 -14,13l0 0c-7,0 -13,-6 -13,-13l0 0 0 -30 -3 0 0 30c0,9 8,16 16,16l0 0c9,0 16,-7 17,-16l0 0 0 -30 -3 0zm36 0l0 3 18 0 0 44 2 0 0 -44 17 0 0 -3 -37 0zm-132 46l4 0 4 -11 24 0 4 11 3 0 -19 -46 -20 46zm20 -39l10 26 -21 0 11 -26zm212 -7l-13 23 -12 -23 -4 0 15 26 0 20 3 0 0 -20 14 -26 -3 0zm-288 0l0 46 26 0 0 -2 -24 0 0 -19 19 0 0 -2 -19 0 0 -20 24 0 0 -3 -26 0zm-61 0l0 46 18 0c7,0 12,-5 12,-12l0 0c0,-4 -2,-8 -5,-10l0 0 -3 -1 2 -2c2,-2 3,-5 3,-8l0 0c0,-7 -5,-13 -12,-13l0 0 -15 0zm3 3l12 0c5,0 10,4 10,10l0 0c0,5 -5,9 -10,9l0 0 -12 0 0 -19zm0 22l15 0c6,0 9,4 9,9l0 0c0,6 -3,10 -8,10l0 0 -16 0 0 -19zm265 116l3 0 0 -47 -3 0 0 47zm-98 -47l0 31c0,7 -7,13 -14,13l0 0c-7,0 -13,-6 -13,-14l0 0 0 -30 -3 0 0 30c0,9 7,17 16,17l0 0c9,0 16,-7 16,-17l0 0 0 -30 -2 0zm132 24c0,12 9,23 22,23l0 0c12,0 22,-11 22,-23l0 0c0,-13 -10,-24 -22,-24l0 0c-13,0 -22,11 -22,24zm2 0c0,-12 9,-21 20,-21l0 0c11,0 19,10 19,21l0 0c0,11 -8,20 -19,20l0 0c-11,0 -20,-9 -20,-20zm-101 -24l0 47 11 0c13,0 23,-11 23,-23l0 0c0,-13 -10,-24 -23,-24l0 0 -11 0zm3 3l8 0c11,0 20,10 20,21l0 0c0,11 -9,20 -20,20l0 0 -8 0 0 -41zm-136 -3l0 3 17 0 0 44 2 0 0 -44 17 0 0 -3 -36 0zm-62 13c0,7 8,10 12,10l0 0c2,1 14,1 14,11l0 0c0,6 -4,10 -11,10l0 0c0,0 -9,0 -13,-6l0 0 -2 2c5,7 15,7 15,7l0 0c7,0 13,-6 13,-13l0 0c0,-10 -9,-12 -16,-13l0 0c-5,-1 -9,-4 -9,-8l0 0c0,-6 4,-10 10,-10l0 0c4,0 6,1 9,4l0 0 2 -3c-3,-2 -7,-4 -11,-4l0 0c-7,0 -13,6 -13,13l0 0z"/>
   </clipPath>
   <clipPath id="id1" style="clip-rule:nonzero">
    <path d="M125 269l0 239 45 0 0 -88 141 0c57,0 85,-17 85,-52l0 0 0 -47c0,-35 -28,-52 -85,-52l0 0 -186 0zm45 35l141 0c27,0 40,6 40,16l0 0 0 48c0,11 -13,16 -40,16l0 0 -141 0 0 -80z"/>
   </clipPath>
   <clipPath id="id2" style="clip-rule:nonzero">
    <path d="M932 269l0 39 242 0 -242 169 0 31 322 0 0 -39 -243 0 243 -170 0 -30 -322 0z"/>
   </clipPath>
   <clipPath id="id3" style="clip-rule:nonzero">
    <path d="M814 508l45 0 0 -239 -45 0 0 239zm-333 -239l0 239 45 0 0 -107 123 0 56 107 48 0 -56 -108c39,-4 59,-21 59,-50l0 0 0 -29c0,-35 -29,-52 -86,-52l0 0 -189 0zm45 35l144 0c27,0 40,6 40,17l0 0 0 29c0,11 -13,16 -40,16l0 0 -144 0 0 -62z"/>
   </clipPath>
 </defs>
 <g id="Слой_x0020_1">
  <metadata id="CorelCorpID_0Corel-Layer"/>
  <polygon class="fil0" points="447,0 897,0 897,774 447,774 "/>
  <g id="_1167875512">
   <path class="fil1" d="M814 508l45 0 0 -239 -45 0 0 239zm-333 -239l0 239 45 0 0 -107 123 0 56 107 48 0 -56 -108c39,-4 59,-21 59,-50l0 0 0 -29c0,-35 -29,-52 -86,-52l0 0 -189 0zm45 35l144 0c27,0 40,6 40,17l0 0 0 29c0,11 -13,16 -40,16l0 0 -144 0 0 -62z"/>
   <path class="fil1" d="M814 508l45 0 0 -239 -45 0 0 239zm-333 -239l0 239 45 0 0 -107 123 0 56 107 48 0 -56 -108c39,-4 59,-21 59,-50l0 0 0 -29c0,-35 -29,-52 -86,-52l0 0 -189 0zm45 35l144 0c27,0 40,6 40,17l0 0 0 29c0,11 -13,16 -40,16l0 0 -144 0 0 -62z"/>
  </g>
  <g>
   <path class="fil0" d="M0 186l456 0 0 404 -456 0 0 -404zm452 4l-448 0 0 396 448 0 0 -396z"/>
  </g>
  <g>
   <path class="fil0" d="M889 186l455 0 0 404 -455 0 0 -404zm451 4l-446 0 0 396 446 0 0 -396z"/>
  </g>
  <g style="clip-path:url(#id0)">
   <image x="0" y="0" width="1342" height="774" xlink:href="logo_priz_Images\logo_priz_ImgID1.png"/>
  </g>
  <path class="fil1" d="M707 600l0 30c0,7 -7,13 -14,13l0 0c-7,0 -13,-6 -13,-13l0 0 0 -30 -3 0 0 30c0,9 8,16 16,16l0 0c9,0 16,-7 17,-16l0 0 0 -30 -3 0zm36 0l0 3 18 0 0 44 2 0 0 -44 17 0 0 -3 -37 0zm-132 46l4 0 4 -11 24 0 4 11 3 0 -19 -46 -20 46zm20 -39l10 26 -21 0 11 -26zm212 -7l-13 23 -12 -23 -4 0 15 26 0 20 3 0 0 -20 14 -26 -3 0zm-288 0l0 46 26 0 0 -2 -24 0 0 -19 19 0 0 -2 -19 0 0 -20 24 0 0 -3 -26 0zm-61 0l0 46 18 0c7,0 12,-5 12,-12l0 0c0,-4 -2,-8 -5,-10l0 0 -3 -1 2 -2c2,-2 3,-5 3,-8l0 0c0,-7 -5,-13 -12,-13l0 0 -15 0zm3 3l12 0c5,0 10,4 10,10l0 0c0,5 -5,9 -10,9l0 0 -12 0 0 -19zm0 22l15 0c6,0 9,4 9,9l0 0c0,6 -3,10 -8,10l0 0 -16 0 0 -19zm265 116l3 0 0 -47 -3 0 0 47zm-98 -47l0 31c0,7 -7,13 -14,13l0 0c-7,0 -13,-6 -13,-14l0 0 0 -30 -3 0 0 30c0,9 7,17 16,17l0 0c9,0 16,-7 16,-17l0 0 0 -30 -2 0zm132 24c0,12 9,23 22,23l0 0c12,0 22,-11 22,-23l0 0c0,-13 -10,-24 -22,-24l0 0c-13,0 -22,11 -22,24zm2 0c0,-12 9,-21 20,-21l0 0c11,0 19,10 19,21l0 0c0,11 -8,20 -19,20l0 0c-11,0 -20,-9 -20,-20zm-101 -24l0 47 11 0c13,0 23,-11 23,-23l0 0c0,-13 -10,-24 -23,-24l0 0 -11 0zm3 3l8 0c11,0 20,10 20,21l0 0c0,11 -9,20 -20,20l0 0 -8 0 0 -41zm-136 -3l0 3 17 0 0 44 2 0 0 -44 17 0 0 -3 -36 0zm-62 13c0,7 8,10 12,10l0 0c2,1 14,1 14,11l0 0c0,6 -4,10 -11,10l0 0c0,0 -9,0 -13,-6l0 0 -2 2c5,7 15,7 15,7l0 0c7,0 13,-6 13,-13l0 0c0,-10 -9,-12 -16,-13l0 0c-5,-1 -9,-4 -9,-8l0 0c0,-6 4,-10 10,-10l0 0c4,0 6,1 9,4l0 0 2 -3c-3,-2 -7,-4 -11,-4l0 0c-7,0 -13,6 -13,13l0 0z"/>
  <path class="fil1" d="M707 600l0 30c0,7 -7,13 -14,13l0 0c-7,0 -13,-6 -13,-13l0 0 0 -30 -3 0 0 30c0,9 8,16 16,16l0 0c9,0 16,-7 17,-16l0 0 0 -30 -3 0zm36 0l0 3 18 0 0 44 2 0 0 -44 17 0 0 -3 -37 0zm-132 46l4 0 4 -11 24 0 4 11 3 0 -19 -46 -20 46zm20 -39l10 26 -21 0 11 -26zm212 -7l-13 23 -12 -23 -4 0 15 26 0 20 3 0 0 -20 14 -26 -3 0zm-288 0l0 46 26 0 0 -2 -24 0 0 -19 19 0 0 -2 -19 0 0 -20 24 0 0 -3 -26 0zm-61 0l0 46 18 0c7,0 12,-5 12,-12l0 0c0,-4 -2,-8 -5,-10l0 0 -3 -1 2 -2c2,-2 3,-5 3,-8l0 0c0,-7 -5,-13 -12,-13l0 0 -15 0zm3 3l12 0c5,0 10,4 10,10l0 0c0,5 -5,9 -10,9l0 0 -12 0 0 -19zm0 22l15 0c6,0 9,4 9,9l0 0c0,6 -3,10 -8,10l0 0 -16 0 0 -19zm265 116l3 0 0 -47 -3 0 0 47zm-98 -47l0 31c0,7 -7,13 -14,13l0 0c-7,0 -13,-6 -13,-14l0 0 0 -30 -3 0 0 30c0,9 7,17 16,17l0 0c9,0 16,-7 16,-17l0 0 0 -30 -2 0zm132 24c0,12 9,23 22,23l0 0c12,0 22,-11 22,-23l0 0c0,-13 -10,-24 -22,-24l0 0c-13,0 -22,11 -22,24zm2 0c0,-12 9,-21 20,-21l0 0c11,0 19,10 19,21l0 0c0,11 -8,20 -19,20l0 0c-11,0 -20,-9 -20,-20zm-101 -24l0 47 11 0c13,0 23,-11 23,-23l0 0c0,-13 -10,-24 -23,-24l0 0 -11 0zm3 3l8 0c11,0 20,10 20,21l0 0c0,11 -9,20 -20,20l0 0 -8 0 0 -41zm-136 -3l0 3 17 0 0 44 2 0 0 -44 17 0 0 -3 -36 0zm-62 13c0,7 8,10 12,10l0 0c2,1 14,1 14,11l0 0c0,6 -4,10 -11,10l0 0c0,0 -9,0 -13,-6l0 0 -2 2c5,7 15,7 15,7l0 0c7,0 13,-6 13,-13l0 0c0,-10 -9,-12 -16,-13l0 0c-5,-1 -9,-4 -9,-8l0 0c0,-6 4,-10 10,-10l0 0c4,0 6,1 9,4l0 0 2 -3c-3,-2 -7,-4 -11,-4l0 0c-7,0 -13,6 -13,13l0 0z"/>
  <g style="clip-path:url(#id1)">
   <image x="0" y="0" width="1342" height="774" xlink:href="logo_priz_Images\logo_priz_ImgID2.png"/>
  </g>
  <g style="clip-path:url(#id2)">
   <image x="0" y="0" width="1342" height="774" xlink:href="logo_priz_Images\logo_priz_ImgID3.png"/>
  </g>
  <path class="fil2" d="M125 269l0 239 45 0 0 -88 141 0c57,0 85,-17 85,-52l0 0 0 -47c0,-35 -28,-52 -85,-52l0 0 -186 0zm45 35l141 0c27,0 40,6 40,16l0 0 0 48c0,11 -13,16 -40,16l0 0 -141 0 0 -80z"/>
  <polygon class="fil2" points="932,269 932,308 1174,308 932,477 932,508 1254,508 1254,469 1011,469 1254,299 1254,269 "/>
  <g style="clip-path:url(#id3)">
   <image x="0" y="0" width="1342" height="774" xlink:href="logo_priz_Images\logo_priz_ImgID4.png"/>
  </g>
 </g>
</svg>
